<svg xmlns="http://www.w3.org/2000/svg" version="1.0" width="512.000000pt" height="512.000000pt" viewBox="0 0 512.000000 512.000000" preserveAspectRatio="xMidYMid meet">

<g transform="translate(0.000000,512.000000) scale(0.100000,-0.100000)" fill="#32ace0" stroke="none">
<path d="M2075 3834 c-16 -2 -73 -9 -125 -15 -200 -22 -440 -89 -584 -161 -335 -167 -548 -461 -626 -864 -35 -181 -40 -310 -40 -991 l0 -663 760 0 760 0 0 770 0 770 -285 0 -285 0 0 44 c0 110 52 251 124 333 82 94 236 171 416 207 58 11 106 21 107 21 1 0 -20 99 -47 220 -26 121 -53 246 -60 278 l-11 57 -37 -1 c-20 -1 -50 -4 -67 -5z"/>
<path d="M4255 3834 c-16 -2 -73 -9 -125 -15 -375 -43 -678 -171 -879 -370 -184 -184 -286 -395 -343 -714 -21 -114 -22 -154 -25 -858 l-4 -737 760 0 761 0 0 770 0 770 -285 0 -285 0 0 48 c0 68 25 163 61 234 78 154 266 268 512 309 61 10 76 16 73 28 -3 9 -30 134 -62 279 l-57 262 -36 -1 c-20 -1 -49 -4 -66 -5z"/>
</g>
</svg>