<svg xmlns="http://www.w3.org/2000/svg" width="512" height="512"><path d="M331 12c4.098 1.87 7.902 4.165 11.75 6.5 1.15.682 2.3 1.363 3.451 2.043 3.011 1.782 6.011 3.58 9.01 5.384 3.969 2.38 7.956 4.731 11.94 7.09 2.245 1.329 4.489 2.66 6.732 3.994 8.81 5.235 17.671 10.374 26.554 15.483 10.224 5.88 20.412 11.821 30.595 17.772 3.987 2.33 7.976 4.656 11.964 6.982l8.996 5.248c4.025 2.348 8.051 4.694 12.078 7.04 4.98 2.899 9.954 5.805 14.928 8.713a3269.99 3269.99 0 0 0 9.33 5.415l6.047 3.523 2.848 1.64 2.613 1.528 2.298 1.333C504 113 504 113 506 116c.207 2.759.296 5.419.294 8.179l.023 2.556c.022 2.838.03 5.675.037 8.512l.04 6.09c.035 5.523.056 11.046.072 16.569.01 3.449.023 6.898.035 10.347.038 10.786.067 21.573.083 32.36.02 12.46.073 24.918.153 37.378.06 9.626.09 19.25.097 28.877.005 5.751.023 11.502.073 17.254.046 5.41.055 10.819.034 16.23 0 1.985.012 3.97.04 5.956.195 15.032.195 15.032-2.74 19.174-2.046 1.567-3.857 2.569-6.241 3.518l-2.437 1.6-1.993 1.173-2.218 1.309-2.227 1.293-2.297 1.363C481.256 339 481.256 339 479 339l.027 3.305c.081 10.312.141 20.625.18 30.938.021 5.3.05 10.601.095 15.902.043 5.123.067 10.245.078 15.367.007 1.948.021 3.895.043 5.843.144 13.496-.28 24.766-9.384 35.575-8.927 9.063-18.664 12.28-31.264 12.41a721 721 0 0 1-9.474-.047 2649.683 2649.683 0 0 1-18.287-.087c-4.512-.03-9.024-.044-13.535-.06A7450.77 7450.77 0 0 1 371 458l-.91 1.87c-1.197 2.339-2.6 4.306-4.18 6.403l-1.86 2.48-1.988 2.622-2.039 2.691c-1.364 1.798-2.73 3.595-4.097 5.39a567.79 567.79 0 0 0-5.082 6.833C341.678 498.636 341.678 498.636 335 500c-5.567.804-10.937.597-15.89-2.246-4.611-3.834-8.027-8.858-11.561-13.661-2.217-2.996-4.49-5.949-6.76-8.905a2290.464 2290.464 0 0 1-6.417-8.415 178.337 178.337 0 0 0-3.75-4.644C289 460 289 460 289 458l-2.798.027c-8.752.08-17.504.141-26.256.18-4.498.021-8.996.05-13.495.095-4.35.044-8.7.067-13.052.078-1.65.007-3.3.021-4.95.043-12.968.164-25.231-.623-35.52-9.517-8.693-8.588-12.227-17.906-12.383-30.05-.014-3.581.022-7.161.063-10.743.008-1.912.014-3.825.018-5.737.015-5 .054-9.998.098-14.998.041-5.115.06-10.23.08-15.345.042-10.011.11-20.022.195-30.033l-2.33-.908c-5.203-2.128-9.952-5.195-14.795-8.03l-3.324-1.92-3.184-1.857-2.903-1.691c-4.973-3.217-4.973-3.217-6.032-6.188-.624-3.476-.573-6.927-.566-10.446l-.007-2.475c-.006-2.74-.005-5.48-.004-8.22l-.01-5.888c-.01-5.334-.012-10.67-.012-16.004-.001-4.45-.005-8.902-.008-13.353-.009-10.499-.011-20.997-.01-31.496 0-10.837-.01-21.674-.026-32.511-.013-9.3-.018-18.6-.018-27.899 0-5.556-.002-11.112-.013-16.668-.01-5.225-.01-10.449-.003-15.673.002-1.919 0-3.837-.007-5.756-.008-2.617-.003-5.233.005-7.85l-.016-2.306c.027-4.049.34-7.263 2.263-10.861 2.195-1.746 2.195-1.746 5.125-3.438l1.688-.991c1.3-.761 2.605-1.516 3.912-2.265a929.207 929.207 0 0 0 7.63-4.443c5.15-3.018 10.307-6.019 15.468-9.016 5.063-2.943 10.12-5.895 15.177-8.847l6-3.5 3-1.75 60.002-35.001 5.983-3.49c5.086-2.968 10.173-5.934 15.261-8.9l3.114-1.816c2.03-1.183 4.062-2.364 6.095-3.543 4.56-2.65 9.1-5.324 13.584-8.102l2.334-1.428a255.874 255.874 0 0 0 4.19-2.627C322.967 12.153 325.89 11.1 331 12Zm-10.469 20.938-3.382 1.94L313.5 37l-3.749 2.161c-11.103 6.41-22.133 12.946-33.146 19.51A633.564 633.564 0 0 1 264 66c3.397 2.837 6.807 5.162 10.664 7.328l3.358 1.899 1.776.997a2153.24 2153.24 0 0 1 9.452 5.35l1.96 1.114c6.52 3.712 12.971 7.533 19.415 11.374a2259.62 2259.62 0 0 0 29.817 17.434c7.202 4.142 14.386 8.311 21.558 12.504a3962.39 3962.39 0 0 0 28.735 16.64c4.872 2.799 9.723 5.617 14.507 8.563l2.37 1.446c1.417.87 2.827 1.751 4.228 2.647 3.514 2.186 3.514 2.186 7.533 2.482 2.962-.877 5.294-2.101 7.959-3.665l3.135-1.824 3.346-1.976 3.466-2.026c2.388-1.394 4.773-2.793 7.157-4.194 3.415-2.008 6.838-4.001 10.263-5.991C463.834 130.79 472.952 125.458 482 120c-3.397-2.837-6.807-5.162-10.664-7.328l-3.358-1.899-1.776-.997a2153.24 2153.24 0 0 1-9.452-5.35l-1.96-1.114c-6.52-3.712-12.971-7.533-19.415-11.374C422.322 84.165 409.175 76.564 396 69c-13.465-7.732-26.9-15.507-40.25-23.438a25747.11 25747.11 0 0 0-15.24-9.04c-2-1.18-4.003-2.354-6.01-3.522l-3.094-1.813c-4.517-2.229-6.788-.607-10.875 1.75Zm-76.104 43.99-2.759 1.666-3.131 1.852-3.35 2.054c-1.164.696-2.33 1.391-3.497 2.084a1219.433 1219.433 0 0 0-7.188 4.31c-5.172 3.12-10.403 6.138-15.627 9.168a25529.433 25529.433 0 0 1-25.375 14.813l-6.094 3.555L173 119c2.486 2.786 5.224 4.41 8.469 6.23l3.377 1.909 1.801 1.01c3.184 1.785 6.358 3.588 9.533 5.39l1.98 1.123c6.537 3.718 13.005 7.549 19.465 11.4a2269.093 2269.093 0 0 0 29.813 17.432c10.22 5.879 20.405 11.818 30.585 17.768 3.012 1.759 6.026 3.514 9.04 5.27l3.037 1.771c2.001 1.164 4.005 2.322 6.013 3.474 5.075 2.925 10.03 5.945 14.899 9.203l2.954 1.916a157.434 157.434 0 0 1 5.466 3.721c2.583 1.655 4.561 2.76 7.568 3.383 4.185-1.218 7.431-3.55 11-6a420.532 420.532 0 0 1 5.918-3.375c2.09-1.207 4.18-2.415 6.27-3.625l3.393-1.961a6552.926 6552.926 0 0 0 26.168-15.229A1993.62 1993.62 0 0 1 402 167c-2.834-3.052-5.616-5.13-9.234-7.18l-3.141-1.793-3.375-1.902-3.511-2.002c-1.803-1.029-3.606-2.057-5.41-3.084-5.843-3.324-11.651-6.707-17.454-10.101l-5.945-3.473-2.962-1.731C345.98 132.82 340.99 129.91 336 127l-6-3.5-3-1.75-36.005-21.003-5.953-3.47c-5.243-3.056-10.48-6.121-15.71-9.199l-3.307-1.941c-2.092-1.23-4.184-2.46-6.273-3.696l-2.857-1.675-2.505-1.476L252 78l-2.473-1.335c-2.558-.929-2.558-.929-5.1.263ZM165 134v181c10.915 6.16 10.915 6.16 22 12l.96-1.54c5.305-7.823 13.263-12.996 22.555-15.003 4.612-.605 9.158-.634 13.805-.662l3.106-.03c3.376-.032 6.752-.057 10.129-.081l7.036-.063c6.165-.055 12.33-.105 18.495-.153 7.401-.06 14.803-.126 22.204-.19 11.237-.098 22.473-.187 33.71-.278v-86l-23-13c-4.45-2.608-8.89-5.223-13.313-7.875-13.155-7.838-26.408-15.5-39.687-23.125-14.382-8.259-28.72-16.583-42.978-25.054A4159.8 4159.8 0 0 0 176.375 140l-3.127-1.836c-.94-.55-1.88-1.098-2.85-1.664l-2.51-1.469c-1.676-1.11-1.676-1.11-2.888-1.031Zm319.566 2.535-2.868 1.682-3.135 1.845c-2.192 1.285-4.383 2.569-6.575 3.852l-1.724 1.01c-7.372 4.316-14.777 8.574-22.18 12.836a280.052 280.052 0 0 0-6.047 3.584C439 163 439 163 435.606 164.076c-4.021 1.495-5.938 2.522-8.606 5.924-2.133 8.447-1.31 17.559-1.063 26.188.056 3.62.096 7.241.121 10.862.02 2.25.062 4.5.127 6.748l.057 3.086.076 2.708c-.387 2.93-1.312 4.27-3.318 6.408-1.938.496-1.938.496-4 .438l-2.063-.004c-2.517-.564-3.326-1.439-4.937-3.434-.399-1.993-.399-1.993-.432-4.288l-.06-2.608-.02-2.803-.054-2.88c-.054-3.036-.088-6.072-.122-9.108a4709.43 4709.43 0 0 0-.103-6.174c-.085-5.046-.152-10.093-.209-15.139-7.804 4.208-15.515 8.557-23.188 13l-3.393 1.961a5512.127 5512.127 0 0 0-25.974 15.12C350.99 214.44 343.498 218.714 336 223v86l23.746.148c4.972.036 9.944.072 14.916.11 7.887.06 15.775.118 23.662.164 6.36.037 12.721.083 19.082.136 2.424.019 4.847.034 7.27.045 3.402.017 6.803.046 10.205.078l3.018.007c12.105.144 21.98 3.02 31.101 11.312l2 3c4.587-.552 7.937-2.55 11.75-5l1.785-1.117c2.885-1.741 2.885-1.741 5.465-3.883.098-2.328.13-4.626.12-6.954l.003-2.23c.002-2.484-.004-4.969-.01-7.453l.001-5.32c0-4.83-.006-9.661-.013-14.492-.006-5.042-.006-10.084-.008-15.126-.003-9.556-.011-19.11-.021-28.666-.011-10.875-.017-21.75-.022-32.626-.01-22.377-.028-44.755-.05-67.133-1.967 0-3.797 1.572-5.434 2.535ZM203.125 331.25l-1.617 1.64c-3.964 5.546-4.955 10.65-4.928 17.365l-.026 2.408a833.223 833.223 0 0 0-.023 7.825l-.023 5.481c-.013 3.824-.015 7.647-.009 11.471.006 4.88-.025 9.757-.065 14.636a1442.16 1442.16 0 0 0-.025 11.317 598.125 598.125 0 0 1-.03 5.392c-.235 13.872-.235 13.872 5.621 26.215 2.161 2.285 2.161 2.285 4.563 3.563l2.253 1.378c4.589 2.225 8.967 2.2 13.994 2.185l2.372.006c1.696.004 3.393.006 5.089.006 3.608.004 7.215.025 10.822.045 6.714.038 13.428.07 20.143.067 4.673 0 9.346.023 14.019.062 1.779.01 3.558.012 5.338.005 2.49-.01 4.978.011 7.467.04l2.222-.031c3.913.079 5.55.534 8.597 3.071L301 448c.62.755 1.24 1.51 1.878 2.29l1.759 2.335 1.985 2.624 2.065 2.751 2.14 2.823c3.117 4.114 6.22 8.237 9.302 12.376l1.366 1.819a965.11 965.11 0 0 1 3.49 4.681c1.936 2.21 3.302 3.256 6.015 4.301 6.414-6.866 11.883-14.433 17.479-21.96a986.557 986.557 0 0 1 7.021-9.29l2.344-3.078L360 447l1.65-2.136c3.246-2.575 6.142-2.415 10.113-2.362l2.357-.017c1.686-.01 3.373-.01 5.06-.001 2.674.012 5.347 0 8.022-.016 4.718-.027 9.436-.033 14.155-.031 7.538.002 15.075-.012 22.613-.056 2.626-.01 5.25-.001 7.876.009 1.625-.006 3.25-.013 4.874-.021l2.189.023c6.276-.061 11.315-1.778 16.779-4.954 8.654-9.123 8.038-19.504 7.94-31.29.002-1.827.004-3.654.008-5.482.003-3.814-.012-7.628-.04-11.442-.033-4.874-.027-9.746-.008-14.62.01-3.768.001-7.535-.014-11.303-.005-1.797-.005-3.593.002-5.39.005-2.514-.015-5.028-.043-7.542l.02-2.217c-.117-6.414-2.311-11.5-6.448-16.394l-1.918-1.633-1.894-1.68c-5.852-3.689-12.028-3.735-18.73-3.706l-2.82-.011a2031.3 2031.3 0 0 0-9.325-.003l-6.698-.015c-6.058-.014-12.115-.014-18.173-.012-5.06.001-10.12-.003-15.18-.008-12.62-.012-25.24-.011-37.86-.005-10.948.006-21.895-.006-32.843-.025-11.254-.02-22.508-.027-33.762-.024-6.314.002-12.627 0-18.94-.014-5.937-.013-11.875-.011-17.813.002-2.176.002-4.352 0-6.529-.009-2.976-.01-5.952-.002-8.93.01l-2.593-.022c-7.136.064-14.869 1.214-19.972 6.647Z"/><path d="m285.422 349.371 3.11-.006 3.218.072 3.172-.033c7.727.073 14.454 1.176 20.234 6.631l1.344 2.027 1.406 2.036c3.142 5.464 2.742 11.807 2.094 17.902-1.944 4.961-5.232 8.32-9 12l2.188 3 2.812 4 1.445 1.965c3.406 4.913 4.225 8.063 3.555 14.035-1.563 2.5-1.563 2.5-4 4-3.438.563-3.438.563-7 0-4.768-3.995-7.85-9.053-11.188-14.25a1094.523 1094.523 0 0 0-3.167-4.89l-1.396-2.173c-1.158-1.83-1.158-1.83-3.249-2.687l.063 1.772c.084 2.66.136 5.318.187 7.978l.102 2.79c.098 6.809.098 6.809-2.153 10.065-3.283 2.082-5.395 1.996-9.199 1.395-2.566-1.662-3.572-2.399-5-5-.758-4.256-.7-8.468-.664-12.781l-.015-3.777c-.004-3.306.016-6.61.044-9.917.01-2.023 0-4.046-.017-6.07-.03-3.891-.027-7.782-.012-11.674l-.03-3.652c.115-8.272.115-8.272 2.897-12.389 3.058-1.902 4.648-2.372 8.219-2.369ZM291 366v11c5.968.404 5.968.404 11.563-1.188 1.633-1.764 1.633-1.764 1.875-4.312-.52-2.97-1.058-3.705-3.438-5.5-2.513-.362-2.513-.362-5.188-.188L291 366ZM349.223 349.371l2.37-.007c1.65 0 3.297.014 4.945.04 2.52.033 5.037.02 7.558 0 1.605.007 3.21.017 4.814.03l2.276-.015c3.523.079 5.46.307 8.284 2.491 1.65 2.254 2.098 3.328 2.092 6.09l.067 2c-1.08 3.435-2.46 4.27-5.629 6-4.116.486-8.176.376-12.313.25l-3.4-.055A644.488 644.488 0 0 1 352 366v10l4.453-.14c1.932-.038 3.865-.075 5.797-.11l2.934-.102c7.154-.098 7.154-.098 10.457 2.149 2.004 3.248 1.893 5.468 1.359 9.203-1.867 2.365-3.32 3.66-6 5-1.448.083-2.9.107-4.352.098l-2.578-.01-2.695-.026-2.719-.013c-2.219-.012-4.437-.03-6.656-.049v9l2.124-.08c3.187-.104 6.375-.168 9.563-.233l3.342-.126c8.178-.124 8.178-.124 12.205 2.736 2.315 3.543 2.446 5.549 1.766 9.703-1.514 2.182-1.514 2.182-4 4a54.63 54.63 0 0 1-8.344.531l-2.442.012a446.43 446.43 0 0 1-5.104-.022c-2.602-.02-5.2 0-7.801.026-1.655-.003-3.31-.008-4.965-.016l-2.352.025c-3.344-.058-5.492-.176-8.195-2.232-2.233-2.888-2.308-4.4-2.33-8.023l-.048-3.469.015-3.734-.02-3.848c-.006-2.687-.005-5.371.01-8.057.017-3.435-.007-6.868-.042-10.303-.027-3.285-.017-6.57-.01-9.855l-.041-3.728c.091-8.373.091-8.373 2.694-12.582 3.779-2.191 6.943-2.43 11.198-2.354ZM406.09 349.434l2.368-.02c1.65-.006 3.3-.003 4.95.01 2.518.013 5.033-.02 7.551-.059 1.606 0 3.212.001 4.818.006l2.27-.04c3.975.07 5.773.527 8.928 3.02C439 355 439 355 439.625 358c-.887 4.258-2.079 5.44-5.625 8-4.12.62-8.159.47-12.313.313l-3.4-.069c-2.764-.059-5.525-.14-8.287-.244v10l4.453-.176c1.932-.047 3.865-.092 5.797-.137l2.934-.126c7.16-.124 7.16-.124 10.492 2.732 1.8 3.682 1.408 5.804.324 9.707-1.895 2.585-2.888 2.963-6 4-1.408.08-2.82.108-4.23.098l-2.432-.01-2.526-.026-2.56-.013c-2.084-.012-4.168-.03-6.252-.049v9l2.124-.08c3.187-.104 6.375-.168 9.563-.233l3.342-.126c8.19-.124 8.19-.124 12.205 2.771 2.174 3.285 2.49 4.802 1.766 8.668-1.514 2.648-1.514 2.648-4 5-2.976.496-5.372.68-8.344.629l-2.442.007a362.42 362.42 0 0 1-5.104-.04c-2.602-.033-5.2-.02-7.801 0-1.655-.007-3.31-.017-4.965-.03l-2.352.015c-3.337-.072-5.496-.205-8.196-2.251-2.251-2.92-2.302-4.476-2.314-8.137l-.038-3.54.025-3.81-.012-3.922a913.48 913.48 0 0 1 .022-8.21c.022-3.505.01-7.008-.015-10.512-.018-3.348-.005-6.695.005-10.043l-.025-3.81.038-3.54.01-3.112c1.313-6.963 6.493-7.3 12.598-7.26ZM234.223 349.371l2.37-.007c1.65 0 3.297.014 4.945.04 2.52.033 5.037.02 7.558 0 1.605.007 3.21.017 4.814.03l2.276-.015c3.523.079 5.46.307 8.284 2.491 1.65 2.254 2.098 3.328 2.092 6.09l.067 2c-1.08 3.435-2.46 4.27-5.629 6-4.116.486-8.176.376-12.313.25l-3.4-.055A775.67 775.67 0 0 1 237 366v14l4.2-.176c1.829-.047 3.658-.092 5.488-.137l2.763-.126c4.64-.085 6.828-.093 10.658 2.736 2.471 3.532 2.582 5.478 1.891 9.703-1.363 2.2-1.363 2.2-4 4-3.595.496-7.13.375-10.75.25l-2.98-.055A497.273 497.273 0 0 1 237 396l.14 3.324c.038 1.455.075 2.909.11 4.363l.102 2.186c.07 3.829-.117 5.73-2.118 9.107-2.334 2.11-3.15 2.705-6.234 2.645l-2 .04c-3.37-1.12-4.19-2.58-6-5.665-.623-4.256-.584-8.486-.566-12.781l-.02-3.777c-.008-3.306.003-6.611.02-9.917.003-2.023-.01-4.046-.03-6.07-.038-3.891-.04-7.782-.033-11.674l-.04-3.652c.091-8.2.091-8.2 2.694-12.389 3.778-2.21 6.936-2.444 11.198-2.369ZM21.127 210.482l3.081-.02c3.358-.018 6.715-.007 10.073.007l7.005-.012c4.893-.006 9.785.003 14.677.022 6.272.022 12.543.01 18.815-.015 4.82-.014 9.642-.01 14.463 0 2.313.003 4.625 0 6.938-.01 3.231-.01 6.462.006 9.694.028l2.897-.024c4.255.054 6.607.16 10.3 2.426 2.3 2.522 2.93 3.701 2.93 7.116-2.277 5.639-2.277 5.639-5 7-1.423.1-2.85.14-4.276.147l-2.719.022-2.99.008-3.145.02c-3.443.02-6.887.031-10.33.041l-3.557.013c-6.21.02-12.42.035-18.63.044-6.425.011-12.85.046-19.275.085-4.93.026-9.862.035-14.793.038-2.369.005-4.738.017-7.107.035-3.312.025-6.622.024-9.933.017l-2.98.039c-6.639-.051-6.639-.051-9.87-2.413-1.495-2.247-1.963-3.418-1.957-6.096l-.067-2c2.264-7.199 9.6-6.57 15.756-6.518ZM69.348 116.596c1.602-.02 1.602-.02 3.236-.038l3.478.008 3.587-.015a1256.9 1256.9 0 0 1 7.504.003c3.833.008 7.663-.02 11.495-.052 2.43-.002 4.86-.001 7.29.002l3.478-.034 3.236.028h2.844c3.281.658 4.47 1.89 6.504 4.502.682 4.17.565 6.158-1.802 9.688-4.8 3.471-9.14 2.973-14.92 2.87l-3.448-.006c-2.402-.01-4.803-.032-7.204-.065a927.17 927.17 0 0 0-11.034-.067c-2.334-.014-4.668-.03-7.002-.049l-3.337-.016-3.105-.049c-.9-.01-1.8-.02-2.727-.032-2.59-.293-4.213-.911-6.421-2.274-2.082-2.676-1.996-4.118-1.875-7.563C60 120 60 120 61.72 118.31c2.751-1.58 4.466-1.696 7.628-1.714ZM72.867 305.58l2.994-.048h3.229l3.321-.024c2.32-.01 4.639-.013 6.958-.009 3.552.001 7.101-.04 10.652-.085 2.252-.005 4.504-.008 6.756-.008l3.223-.05c7.327.07 7.327.07 10.705 2.955 1.767 3.67 1.373 5.81.295 9.689-1.579 2.06-2.691 2.846-5 4-1.46.1-2.923.138-4.386.145l-2.751.02-2.98.003-3.057.01c-2.137.005-4.274.007-6.41.007-3.27.002-6.54.02-9.81.04-2.075.003-4.149.005-6.223.005l-2.968.022-2.77-.01-2.431.005c-2.489-.278-4.083-.95-6.214-2.247-2.097-2.696-1.995-4.093-1.813-7.562 1.285-5.434 3.175-6.805 8.68-6.858ZM89.457 257.762l2.242-.025c1.568-.014 3.136-.024 4.704-.032 2.39-.017 4.78-.061 7.17-.105 1.523-.01 3.047-.019 4.572-.026l2.156-.053c3.56.016 5.572.4 8.624 2.29 2.876 3.033 3.148 5.05 3.075 9.189-1.469 2.681-1.469 2.681-4 5-3.044.508-5.52.703-8.563.664l-2.51.015c-1.748.003-3.496-.006-5.244-.027-2.675-.027-5.345 0-8.019.032-1.7-.004-3.401-.01-5.102-.02l-2.418.03c-3.902-.082-5.755-.34-8.683-3.009-1.995-3.666-1.562-5.722-.461-9.685 3.396-4.43 7.236-4.185 12.457-4.238ZM94.91 163.469l3.998-.016 2.067.026c2.086.021 4.168 0 6.254-.026l3.994.016 3.648.013c3.698.612 4.873 1.586 7.129 4.518.531 2 .531 2 .5 4l.031 2c-.787 2.964-2.146 4.096-4.531 6-3.129.518-3.129.518-6.777.531l-3.994.016-2.073-.026c-2.084-.02-4.164 0-6.248.026l-3.998-.016-3.652-.013c-3.847-.612-5.518-1.8-8.258-4.518-.664-2-.664-2-.625-4l-.04-2c1.927-5.8 7.181-6.511 12.575-6.531Z"/></svg>